<svg version="1" xmlns="http://www.w3.org/2000/svg" width="6666.667" height="6666.667" viewBox="0 0 5000.000000 5000.000000"><path d="M2409.5 1.1c-300.8 11.5-591.6 74.9-866.2 188.7-393 162.9-736.5 422-1001.5 755.2-82.5 103.9-160.5 220.3-225 336C130.2 1615.8 23.5 1985.6 3 2368c-4.2 78.5-4.2 185.5 0 264 15.2 284.4 78.3 562.9 186.8 824.7 162.9 393 422 736.5 755.2 1001.5 103.9 82.5 220.3 160.5 336 225 334.8 186.6 704.6 293.3 1087 313.8 78.5 4.2 185.5 4.2 264 0 284.4-15.2 562.9-78.3 824.7-186.8 456.6-189.3 846-508.5 1120.8-918.7 250.7-374.3 395.4-808.7 419.5-1259.5 4.2-78.5 4.2-185.5 0-264-15.2-284.4-78.3-562.9-186.8-824.7-189.3-456.6-508.5-846-918.7-1120.8C3517.2 171.8 3082.8 27.1 2632 3c-56.1-3-169.3-4-222.5-1.9zM2576 101c92.9 3.2 179 10.8 267 23.5 621.4 89.8 1182.1 418.9 1563.7 917.7 281.3 367.6 450.6 810.6 486.3 1272.3 11.4 148.1 9 299.7-7.1 446.5-69.6 635.3-389.4 1216.5-888.9 1615.1-460.5 367.5-1041.7 553.1-1629.5 520.4-700.8-39.1-1347.9-381.4-1774.2-938.7-347.4-454-521.6-1019.7-489.8-1590.3 38.1-683.5 364.9-1317 899.5-1743.6 403.7-322.2 899.3-505 1417.5-522.8 33.5-1.2 122.4-1.2 155.5-.1z"/><path d="M2551 997c-215.1 9.2-418 57.2-602.5 142.5-247.3 114.3-447.8 292.4-582.5 517.4-119.3 199.5-188.1 431.5-206.5 697.1-3.5 50.5-4 69.5-4 144s.4 89.9 4.1 144c19.3 287.8 100.6 543.9 238.7 751.5 66 99.3 141.4 184.7 231.7 262.6 102.3 88.3 221.3 162.1 352.5 218.7 118.2 50.9 251.3 88.6 384 108.7 378.2 57.2 742.9-12 1063.8-201.7 38.4-22.7 94.2-61.9 144.2-101.2 121.5-95.5 233.4-209.1 262.8-266.8 6.6-12.8 8.2-18.8 8.1-29.3-.4-28.7-18.8-54.5-49.9-69.9-14.3-7.1-24.9-9.9-38-9.9-12.2-.1-18.9 1.4-29 6.5-14.5 7.2-33.7 25.1-67 62.3-33.3 37.2-81.7 84.1-121 117.1-204.5 172-458.2 279.3-724.1 306.3-45.3 4.6-63.7 5.5-119.9 5.5-55.3.1-66-.4-102.4-4.5-134.2-15.1-250.8-62.6-346.6-141.2-42.8-35.2-83.3-78-117.9-124.7-115.5-155.7-190.5-377.1-224-661-8.4-71.3-13.6-139.7-17.8-234.5-1.8-39.7-1.8-216 0-254 3.8-82.1 8.2-142.2 15.3-206 50.2-455.5 206.7-794.7 436.9-947 105.6-69.9 225.2-98.8 350.2-84.5 173.3 19.8 379.2 116.8 549.5 258.9 94.3 78.6 174.2 167.9 236 263.6 20.7 32.2 36.7 60.3 54.3 96 20.6 41.7 32.6 70.8 49.5 120.5 5.2 15.3 11 31.2 12.9 35.4 10.9 23.8 25.8 37.6 46.6 43.2 9.1 2.4 31 2.5 40 .1 22.4-6 36.2-20.5 43.4-45.7 3.9-14 5.7-28.8 6.6-57.5 1.2-35.7 1.2-724.1 0-759-1.3-38.2-4.2-55-12.5-72.2-10.4-21.3-29.3-32.3-56-32.3-29.5 0-54.2 15-66.5 40.5-5.7 11.7-7.2 17.2-10 36.1-5.5 37.2-15.7 60.8-34.6 79.9-16.8 17-39.4 27.7-68.9 32.6-10.4 1.8-62.1 1.8-80 0-91.7-9-181.7-34.5-293.5-83.1-47.4-20.6-53.9-23.4-75.3-31.6-105.7-40.8-208.7-63.4-330.2-72.5-18-1.3-125-2-150.5-.9zm-441 237.8c0 1-5.2 7.4-11.6 14.2-67.2 71.9-133.4 177.8-186 297.3-95.8 217.7-152.6 484.3-167.9 787.7-5.4 108.7-5.4 239.1 0 350 17.7 359.4 90 643.8 218.2 858.5 22.9 38.2 57.2 87.1 84 119.6 35.7 43.3 76.4 84.5 116.4 117.8 6.6 5.6 11.7 10.1 11.2 10.1-1.1 0-28.9-9.4-45.3-15.3-236.2-85.1-422.6-216-560.7-393.7-105.6-136-182.4-302.1-225.3-487.5-22.6-97.3-34.9-188.7-41.2-306-1.6-30.2-1.6-141.5 0-173 6.6-128.3 20.8-228.9 47.2-334.6 77.8-311 250.1-559 501-721.2 77.6-50.2 154.8-88 251.5-123 8.5-3.1 8.5-3.1 8.5-.9zm1473.8 261.3l-.3 64-14.1-18.8c-33.6-44.6-65.6-80.5-152.8-171.1-21.3-22.2-38.6-40.6-38.3-40.9.3-.2 3.8 0 7.8.6 4 .7 18.1 1.6 31.3 2.2 67.1 2.9 120.9-5.1 157.1-23.4l9-4.5.3 63.9c.1 35.2.1 92.7 0 128z"/></svg>