<svg id="svg" version="1.1" xmlns="http://www.w3.org/2000/svg" xmlns:xlink="http://www.w3.org/1999/xlink" width="400" height="400" viewBox="0, 0, 400,400"><g id="svgg"><path id="path0" d="M186.180 0.235 C 66.482 10.248,-16.883 116.298,2.697 233.647 C 20.811 342.204,124.311 415.546,233.647 397.303 C 342.204 379.189,415.546 275.689,397.303 166.353 C 382.620 78.357,312.033 11.937,221.497 0.924 C 216.596 0.328,191.033 -0.170,186.180 0.235 M219.962 12.279 C 236.859 14.141,255.470 18.711,269.290 24.393 C 271.190 25.174,273.570 26.139,274.579 26.537 C 315.220 42.573,357.427 84.780,373.463 125.421 C 373.861 126.430,374.826 128.810,375.607 130.710 C 392.952 172.902,392.952 227.098,375.607 269.290 C 374.826 271.190,373.861 273.570,373.463 274.579 C 357.427 315.220,315.220 357.427,274.579 373.463 C 273.570 373.861,271.190 374.826,269.290 375.607 C 227.098 392.952,172.902 392.952,130.710 375.607 C 128.810 374.826,126.430 373.861,125.421 373.463 C 84.780 357.427,42.573 315.220,26.537 274.579 C 26.139 273.570,25.174 271.190,24.393 269.290 C 7.048 227.098,7.048 172.902,24.393 130.710 C 25.174 128.810,26.139 126.430,26.537 125.421 C 42.573 84.780,84.780 42.573,125.421 26.537 C 126.430 26.139,128.810 25.174,130.710 24.393 C 156.853 13.646,190.691 9.053,219.962 12.279 M202.495 81.989 C 201.651 82.070,198.800 82.328,196.161 82.561 C 139.064 87.614,98.985 129.084,94.835 187.404 C 89.685 259.774,129.235 310.484,196.152 317.311 C 232.400 321.010,264.986 310.434,292.159 286.153 C 305.074 274.613,307.984 269.099,303.259 265.123 C 299.245 261.745,297.665 262.385,289.313 270.774 C 267.889 292.294,240.708 303.444,212.284 302.372 C 172.476 300.872,151.659 265.993,151.644 200.768 C 151.628 129.647,179.904 85.522,219.921 94.219 C 247.188 100.146,274.600 123.439,283.868 148.560 C 286.148 154.741,286.458 155.409,287.520 156.426 C 289.659 158.476,293.592 158.113,295.307 155.707 L 296.161 154.511 296.265 120.419 C 296.365 87.724,296.340 86.261,295.645 84.691 C 293.410 79.638,286.243 81.605,285.369 87.511 C 283.633 99.238,271.756 100.056,247.601 90.112 C 231.410 83.446,216.055 80.681,202.495 81.989 M168.167 102.001 C 149.504 124.226,140.691 155.904,140.691 200.768 C 140.691 246.715,149.576 276.547,169.130 296.257 C 171.905 299.055,174.107 301.344,174.024 301.344 C 173.723 301.344,169.431 299.825,167.179 298.922 C 126.685 282.682,105.696 248.736,105.775 199.616 C 105.852 152.140,127.596 116.207,164.875 101.951 C 166.353 101.386,167.908 100.781,168.330 100.606 C 169.525 100.110,169.488 100.427,168.167 102.001 M285.221 116.161 L 285.221 126.372 283.525 124.126 C 281.352 121.248,277.671 117.138,272.888 112.246 C 268.335 107.590,268.384 107.910,272.265 108.150 C 276.408 108.406,282.528 107.384,285.125 106.001 C 285.178 105.973,285.221 110.545,285.221 116.161 " stroke="none" fill="#050505" fill-rule="evenodd"></path><path id="path1" d="M185.605 11.934 C 114.733 17.656,52.369 62.792,25.999 127.447 C 22.362 136.365,20.848 140.760,17.934 150.864 C 9.451 180.273,9.451 219.727,17.934 249.136 C 20.848 259.240,22.362 263.635,25.999 272.553 C 44.345 317.534,82.466 355.655,127.447 374.001 C 136.365 377.638,140.760 379.152,150.864 382.066 C 180.273 390.549,219.727 390.549,249.136 382.066 C 259.240 379.152,263.635 377.638,272.553 374.001 C 317.534 355.655,355.655 317.534,374.001 272.553 C 377.638 263.635,379.152 259.240,382.066 249.136 C 390.549 219.727,390.549 180.273,382.066 150.864 C 379.152 140.760,377.638 136.365,374.001 127.447 C 355.655 82.466,317.534 44.345,272.553 25.999 C 263.635 22.362,259.240 20.848,249.136 17.934 C 231.437 12.829,205.203 10.351,185.605 11.934 M219.716 82.162 C 228.303 82.976,236.689 85.284,247.207 89.726 C 270.491 99.560,282.170 99.143,284.966 88.379 C 286.331 83.123,287.637 81.766,291.332 81.766 C 293.504 81.766,294.588 82.380,295.633 84.205 L 296.545 85.797 296.545 119.770 C 296.545 159.916,296.837 157.828,291.216 157.910 C 287.682 157.961,286.492 156.670,284.388 150.504 C 275.831 125.418,249.229 101.663,222.207 94.977 C 180.524 84.663,152.006 127.648,152.020 200.768 C 152.035 277.614,180.012 311.294,234.725 300.333 C 256.387 295.993,274.219 286.085,290.459 269.365 C 297.128 262.500,298.158 262.056,302.376 264.238 C 308.327 267.315,306.865 271.976,296.809 281.996 C 261.126 317.550,209.992 327.902,161.996 309.288 C 110.341 289.255,83.872 231.634,97.305 168.458 C 109.223 112.409,160.141 76.512,219.716 82.162 M166.219 101.591 C 125.992 117.102,103.238 156.861,105.960 206.885 C 108.502 253.615,130.342 285.204,170.227 299.841 C 171.904 300.456,173.309 300.960,173.349 300.960 C 173.390 300.960,171.491 299.016,169.130 296.641 C 164.322 291.804,161.031 287.567,157.485 281.651 C 130.236 236.192,135.979 135.456,167.703 102.399 C 169.700 100.318,169.626 100.278,166.219 101.591 M282.534 107.215 C 280.901 107.817,279.180 108.033,274.943 108.167 L 269.464 108.339 273.408 112.435 C 278.089 117.297,281.894 121.565,283.821 124.118 L 285.221 125.971 285.221 116.152 C 285.221 110.752,285.091 106.357,284.933 106.385 C 284.774 106.413,283.695 106.787,282.534 107.215 " stroke="none" fill="#fbfbfb" fill-rule="evenodd"></path><path id="path2" d="M66.411 66.603 C 65.478 67.553,64.802 68.330,64.907 68.330 C 65.013 68.330,65.862 67.553,66.795 66.603 C 67.727 65.653,68.404 64.875,68.298 64.875 C 68.192 64.875,67.343 65.653,66.411 66.603 M333.189 66.507 C 334.131 67.510,334.951 68.330,335.013 68.330 C 335.301 68.330,334.996 67.985,333.301 66.395 L 331.478 64.683 333.189 66.507 M274.088 113.364 C 274.088 113.430,274.650 113.991,275.336 114.611 L 276.583 115.739 275.456 114.491 C 274.405 113.328,274.088 113.067,274.088 113.364 M134.147 122.169 L 132.630 123.800 134.261 122.283 C 135.778 120.872,136.069 120.537,135.778 120.537 C 135.716 120.537,134.982 121.272,134.147 122.169 M152.112 185.988 C 152.116 186.833,152.195 187.133,152.287 186.656 C 152.379 186.178,152.375 185.487,152.279 185.120 C 152.183 184.753,152.108 185.144,152.112 185.988 M140.220 191.939 C 140.220 192.889,140.295 193.277,140.386 192.802 C 140.478 192.327,140.478 191.550,140.386 191.075 C 140.295 190.600,140.220 190.988,140.220 191.939 M94.176 196.737 C 94.178 198.215,94.247 198.773,94.330 197.976 C 94.413 197.180,94.412 195.970,94.327 195.289 C 94.242 194.607,94.174 195.259,94.176 196.737 M105.676 195.969 C 105.679 197.025,105.753 197.411,105.842 196.828 C 105.930 196.244,105.928 195.380,105.836 194.908 C 105.745 194.436,105.673 194.914,105.676 195.969 M151.789 200.576 C 151.788 204.165,151.846 205.685,151.917 203.954 C 151.988 202.222,151.988 199.285,151.918 197.428 C 151.847 195.570,151.789 196.987,151.789 200.576 M94.176 202.879 C 94.178 204.357,94.247 204.915,94.330 204.118 C 94.413 203.322,94.412 202.112,94.327 201.431 C 94.242 200.750,94.174 201.401,94.176 202.879 M105.671 204.223 C 105.671 205.173,105.746 205.561,105.837 205.086 C 105.929 204.611,105.929 203.834,105.837 203.359 C 105.746 202.884,105.671 203.273,105.671 204.223 M140.225 209.405 C 140.228 210.461,140.302 210.847,140.391 210.263 C 140.479 209.680,140.477 208.816,140.385 208.344 C 140.294 207.872,140.222 208.349,140.225 209.405 M152.112 215.547 C 152.116 216.392,152.195 216.692,152.287 216.214 C 152.379 215.737,152.375 215.046,152.279 214.679 C 152.183 214.312,152.108 214.702,152.112 215.547 M293.450 266.123 L 292.322 267.370 293.570 266.243 C 294.256 265.623,294.818 265.061,294.818 264.995 C 294.818 264.699,294.501 264.960,293.450 266.123 M287.704 272.265 L 285.413 274.664 287.812 272.373 C 290.041 270.244,290.387 269.866,290.103 269.866 C 290.044 269.866,288.964 270.945,287.704 272.265 M128.215 288.100 C 128.931 288.839,129.604 289.443,129.709 289.443 C 129.815 289.443,129.315 288.839,128.599 288.100 C 127.883 287.361,127.210 286.756,127.105 286.756 C 126.999 286.756,127.499 287.361,128.215 288.100 M218.138 302.376 C 218.508 302.472,219.112 302.472,219.482 302.376 C 219.851 302.279,219.549 302.200,218.810 302.200 C 218.071 302.200,217.769 302.279,218.138 302.376 M66.395 333.301 C 67.336 334.304,68.157 335.125,68.218 335.125 C 68.506 335.125,68.202 334.780,66.507 333.189 L 64.683 331.478 66.395 333.301 M333.205 333.397 C 332.273 334.347,331.596 335.125,331.702 335.125 C 331.808 335.125,332.657 334.347,333.589 333.397 C 334.522 332.447,335.198 331.670,335.093 331.670 C 334.987 331.670,334.138 332.447,333.205 333.397 " stroke="none" fill="#9f9f9f" fill-rule="evenodd"></path><path id="path3" d="M193.191 11.408 C 193.775 11.496,194.639 11.494,195.111 11.403 C 195.583 11.312,195.106 11.239,194.050 11.242 C 192.994 11.245,192.608 11.320,193.191 11.408 M205.092 11.408 C 205.675 11.496,206.539 11.494,207.011 11.403 C 207.483 11.312,207.006 11.239,205.950 11.242 C 204.894 11.245,204.508 11.320,205.092 11.408 M296.536 119.770 C 296.536 137.188,296.583 144.314,296.641 135.605 C 296.698 126.895,296.698 112.644,296.641 103.935 C 296.583 95.226,296.536 102.351,296.536 119.770 M209.124 93.176 C 209.814 93.262,210.850 93.260,211.427 93.173 C 212.004 93.085,211.440 93.015,210.173 93.017 C 208.906 93.019,208.434 93.091,209.124 93.176 M269.866 109.141 C 269.866 109.207,270.427 109.769,271.113 110.389 L 272.361 111.516 271.233 110.269 C 270.182 109.106,269.866 108.845,269.866 109.141 M151.736 191.555 C 151.736 192.505,151.811 192.893,151.902 192.418 C 151.994 191.943,151.994 191.166,151.902 190.691 C 151.811 190.216,151.736 190.605,151.736 191.555 M11.242 194.050 C 11.245 195.106,11.320 195.492,11.408 194.908 C 11.496 194.325,11.494 193.461,11.403 192.989 C 11.312 192.517,11.239 192.994,11.242 194.050 M388.593 194.050 C 388.596 195.106,388.671 195.492,388.759 194.908 C 388.847 194.325,388.845 193.461,388.754 192.989 C 388.663 192.517,388.591 192.994,388.593 194.050 M140.270 200.768 C 140.270 204.040,140.329 205.379,140.401 203.743 C 140.472 202.107,140.472 199.429,140.401 197.793 C 140.329 196.156,140.270 197.495,140.270 200.768 M11.242 205.950 C 11.245 207.006,11.320 207.392,11.408 206.809 C 11.496 206.225,11.494 205.361,11.403 204.889 C 11.312 204.417,11.239 204.894,11.242 205.950 M388.593 205.950 C 388.596 207.006,388.671 207.392,388.759 206.809 C 388.847 206.225,388.845 205.361,388.754 204.889 C 388.663 204.417,388.591 204.894,388.593 205.950 M151.736 209.981 C 151.736 210.931,151.811 211.320,151.902 210.845 C 151.994 210.369,151.994 209.592,151.902 209.117 C 151.811 208.642,151.736 209.031,151.736 209.981 M133.589 277.351 C 134.736 278.512,135.761 279.463,135.866 279.463 C 135.972 279.463,135.120 278.512,133.973 277.351 C 132.826 276.190,131.802 275.240,131.696 275.240 C 131.591 275.240,132.442 276.190,133.589 277.351 M169.098 296.737 C 169.923 297.582,170.684 298.273,170.789 298.273 C 170.895 298.273,170.306 297.582,169.482 296.737 C 168.657 295.893,167.896 295.202,167.790 295.202 C 167.685 295.202,168.273 295.893,169.098 296.737 M205.278 318.121 C 205.753 318.213,206.531 318.213,207.006 318.121 C 207.481 318.030,207.092 317.955,206.142 317.955 C 205.192 317.955,204.803 318.030,205.278 318.121 M212.576 318.122 C 213.054 318.214,213.745 318.210,214.112 318.114 C 214.479 318.018,214.088 317.943,213.244 317.947 C 212.399 317.951,212.099 318.030,212.576 318.122 M193.191 388.759 C 193.775 388.847,194.639 388.845,195.111 388.754 C 195.583 388.663,195.106 388.591,194.050 388.593 C 192.994 388.596,192.608 388.671,193.191 388.759 M205.092 388.759 C 205.675 388.847,206.539 388.845,207.011 388.754 C 207.483 388.663,207.006 388.591,205.950 388.593 C 204.894 388.596,204.508 388.671,205.092 388.759 " stroke="none" fill="#747474" fill-rule="evenodd"></path><path id="path4" d="M197.793 11.416 C 199.007 11.492,200.993 11.492,202.207 11.416 C 203.421 11.340,202.428 11.278,200.000 11.278 C 197.572 11.278,196.579 11.340,197.793 11.416 M11.278 200.000 C 11.278 202.428,11.340 203.421,11.416 202.207 C 11.492 200.993,11.492 199.007,11.416 197.793 C 11.340 196.579,11.278 197.572,11.278 200.000 M388.629 200.000 C 388.629 202.428,388.691 203.421,388.767 202.207 C 388.844 200.993,388.844 199.007,388.767 197.793 C 388.691 196.579,388.629 197.572,388.629 200.000 M197.793 388.767 C 199.007 388.844,200.993 388.844,202.207 388.767 C 203.421 388.691,202.428 388.629,200.000 388.629 C 197.572 388.629,196.579 388.691,197.793 388.767 " stroke="none" fill="#7c7c7c" fill-rule="evenodd"></path></g></svg>